<?xml version="1.0" encoding="utf-8"?>

<!DOCTYPE svg PUBLIC "-//W3C//DTD SVG 20010904//EN"
        "http://www.w3.org/TR/2001/REC-SVG-20010904/DTD/svg10.dtd">

<svg xmlns="http://www.w3.org/2000/svg" xmlns:xlink="http://www.w3.org/1999/xlink">
     <svg width="720" height="720" viewBox="-50 -50 720 720">
        <text x="-30" y="-10" font-family="Arial" font-size="10" stroke="black" stroke-width="0.8">TEMPERATURE ET PRECIPITATIONS</text>
        <text x="225" y="-10" font-family="Arial" font-size="10" stroke="black" stroke-width="0.8">A PARIS LE 4/11</text>
        <rect x="-30" y="0" width="330" height="310" fill="none" stroke="#696969" stroke-width="1"></rect>
        <g transform="scale(1.5,1.5)">
        <g font-family="Arial" font-size="5">
            <g id="referentiel">
                <g id="arrow">
                    <line x1="10" y1="30" x2="10" y2="170"
                          style="stroke:rgb(0,0,0);stroke-width:1" />
                    <polygon points="10,30 8,30 10,26 12,30, 10,30"
                             stroke-width="1"/>
                    <g id="vertical_graduations">
                        <line x1="9" y1="40" x2="11" y2="40" style="stroke:rgb(0,0,0);stroke-width:0.5" transform="translate(0 0)"/>
                        <line x1="9" y1="40" x2="11" y2="40" style="stroke:rgb(0,0,0);stroke-width:0.5" transform="translate(0 10)"/>
                        <line x1="9" y1="40" x2="11" y2="40" style="stroke:rgb(0,0,0);stroke-width:0.5" transform="translate(0 20)"/>
                        <line x1="9" y1="40" x2="11" y2="40" style="stroke:rgb(0,0,0);stroke-width:0.5" transform="translate(0 30)"/>
                        <line x1="9" y1="40" x2="11" y2="40" style="stroke:rgb(0,0,0);stroke-width:0.5" transform="translate(0 40)"/>
                        <line x1="9" y1="40" x2="11" y2="40" style="stroke:rgb(0,0,0);stroke-width:0.5" transform="translate(0 50)"/>
                        <line x1="9" y1="40" x2="11" y2="40" style="stroke:rgb(0,0,0);stroke-width:0.5" transform="translate(0 60)"/>
                        <line x1="9" y1="40" x2="11" y2="40" style="stroke:rgb(0,0,0);stroke-width:0.5" transform="translate(0 70)"/>
                        <line x1="9" y1="40" x2="11" y2="40" style="stroke:rgb(0,0,0);stroke-width:0.5" transform="translate(0 80)"/>
                        <line x1="9" y1="40" x2="11" y2="40" style="stroke:rgb(0,0,0);stroke-width:0.5" transform="translate(0 90)"/>
                        <line x1="9" y1="40" x2="11" y2="40" style="stroke:rgb(0,0,0);stroke-width:0.5" transform="translate(0 100)"/>
                        <line x1="9" y1="40" x2="11" y2="40" style="stroke:rgb(0,0,0);stroke-width:0.5" transform="translate(0 110)"/>
                        <line x1="9" y1="40" x2="11" y2="40" style="stroke:rgb(0,0,0);stroke-width:0.5" transform="translate(0 120)"/>
                    </g>
                </g>
                <g transform="translate (160 0) rotate(0)" >
                    <use xlink:href="#arrow"></use>
                </g>
                <g id="time">
                    <line x1="10" y1="170" x2="170" y2="170"
                          style="stroke:rgb(0,0,0);stroke-width:1" />
                    <g id="horizontal_graduation">
                        <line x1="10" y1="168" x2="10" y2="172" style="stroke:rgb(0,0,0);stroke-width:0.5" transform="translate(10 0)"/>
                        <line x1="10" y1="168" x2="10" y2="172" style="stroke:rgb(0,0,0);stroke-width:0.5" transform="translate(20 0)"/>
                        <line x1="10" y1="168" x2="10" y2="172" style="stroke:rgb(0,0,0);stroke-width:0.5" transform="translate(30 0)"/>
                        <line x1="10" y1="168" x2="10" y2="172" style="stroke:rgb(0,0,0);stroke-width:0.5" transform="translate(40 0)"/>
                        <line x1="10" y1="168" x2="10" y2="172" style="stroke:rgb(0,0,0);stroke-width:0.5" transform="translate(50 0)"/>
                        <line x1="10" y1="168" x2="10" y2="172" style="stroke:rgb(0,0,0);stroke-width:0.5" transform="translate(60 0)"/>
                        <line x1="10" y1="168" x2="10" y2="172" style="stroke:rgb(0,0,0);stroke-width:0.5" transform="translate(70 0)"/>
                        <line x1="10" y1="168" x2="10" y2="172" style="stroke:rgb(0,0,0);stroke-width:0.5" transform="translate(80 0)"/>
                        <line x1="10" y1="168" x2="10" y2="172" style="stroke:rgb(0,0,0);stroke-width:0.5" transform="translate(90 0)"/>
                        <line x1="10" y1="168" x2="10" y2="172" style="stroke:rgb(0,0,0);stroke-width:0.5" transform="translate(100 0)"/>
                        <line x1="10" y1="168" x2="10" y2="172" style="stroke:rgb(0,0,0);stroke-width:0.5" transform="translate(110 0)"/>
                        <line x1="10" y1="168" x2="10" y2="172" style="stroke:rgb(0,0,0);stroke-width:0.5" transform="translate(120 0)"/>
                        <line x1="10" y1="168" x2="10" y2="172" style="stroke:rgb(0,0,0);stroke-width:0.5" transform="translate(130 0)"/>
                        <line x1="10" y1="168" x2="10" y2="172" style="stroke:rgb(0,0,0);stroke-width:0.5" transform="translate(140 0)"/>
                        <line x1="10" y1="168" x2="10" y2="172" style="stroke:rgb(0,0,0);stroke-width:0.5" transform="translate(150 0)"/>
                    </g>
                </g>

                <g id="text_axes">
                    <text x="-10" y="20" fill="#000000" >
                        Température (°C)
                    </text>
                    <text x="140" y="20" fill="#000000">
                        Précipitations (mm)
                    </text>
                    <text x="75" y="190" fill="#000000">
                        Heure
                    </text>
                </g>
                <g id="temperature_axes">
                    <text x="0" y="172" fill="#000000" transform="translate(0 0)">0</text>
                    <text x="0" y="172" fill="#000000" transform="translate(0 -10)">2</text>
                    <text x="0" y="172" fill="#000000" transform="translate(0 -20)">4</text>
                    <text x="0" y="172" fill="#000000" transform="translate(0 -30)">6</text>
                    <text x="0" y="172" fill="#000000" transform="translate(0 -40)">8</text>
                    <text x="0" y="172" fill="#000000" transform="translate(-2 -50)">10</text>
                    <text x="0" y="172" fill="#000000" transform="translate(-2 -60)">12</text>
                    <text x="0" y="172" fill="#000000" transform="translate(-2 -70)">14</text>
                    <text x="0" y="172" fill="#000000" transform="translate(-2 -80)">16</text>
                    <text x="0" y="172" fill="#000000" transform="translate(-2 -90)">18</text>
                    <text x="0" y="172" fill="#000000" transform="translate(-2 -100)">20</text>
                    <text x="0" y="172" fill="#000000" transform="translate(-2 -110)">22</text>
                    <text x="0" y="172" fill="#000000" transform="translate(-2 -120)">24</text>
                    <text x="0" y="172" fill="#000000" transform="translate(-2 -130)">26</text>
                </g>
                <g id="precipitation_axes">
                    <text x="176" y="172" fill="#000000" transform="translate(0 0)">0.0</text>
                    <text x="176" y="172" fill="#000000" transform="translate(0 -10)">0.1</text>
                    <text x="176" y="172" fill="#000000" transform="translate(0 -20)">0.2</text>
                    <text x="176" y="172" fill="#000000" transform="translate(0 -30)">0.3</text>
                    <text x="176" y="172" fill="#000000" transform="translate(0 -40)">0.4</text>
                    <text x="176" y="172" fill="#000000" transform="translate(0 -50)">0.5</text>
                    <text x="176" y="172" fill="#000000" transform="translate(0 -60)">0.6</text>
                    <text x="176" y="172" fill="#000000" transform="translate(0 -70)">0.7</text>
                    <text x="176" y="172" fill="#000000" transform="translate(0 -80)">0.8</text>
                    <text x="176" y="172" fill="#000000" transform="translate(0 -90)">0.9</text>
                    <text x="176" y="172" fill="#000000" transform="translate(0 -100)">1.0</text>
                    <text x="176" y="172" fill="#000000" transform="translate(0 -110)">1.1</text>
                    <text x="176" y="172" fill="#000000" transform="translate(0 -120)">1.2</text>
                    <text x="176" y="172" fill="#000000" transform="translate(0 -130)">1.3</text>
                </g>
                <g id="heure_axes">
                    <text x="8" y="179" fill="#000000" transform="translate(10 0)">7</text>
                    <text x="8" y="179" fill="#000000" transform="translate(20 0)">8</text>
                    <text x="8" y="179" fill="#000000" transform="translate(30 0)">9</text>
                    <text x="8" y="179" fill="#000000" transform="translate(38 0)">10</text>
                    <text x="8" y="179" fill="#000000" transform="translate(48 0)">11</text>
                    <text x="8" y="179" fill="#000000" transform="translate(58 0)">12</text>
                    <text x="8" y="179" fill="#000000" transform="translate(68 0)">13</text>
                    <text x="8" y="179" fill="#000000" transform="translate(78 0)">14</text>
                    <text x="8" y="179" fill="#000000" transform="translate(88 0)">15</text>
                    <text x="8" y="179" fill="#000000" transform="translate(98 0)">16</text>
                    <text x="8" y="179" fill="#000000" transform="translate(108 0)">17</text>
                    <text x="8" y="179" fill="#000000" transform="translate(118 0)">18</text>
                    <text x="8" y="179" fill="#000000" transform="translate(128 0)">19</text>
                    <text x="8" y="179" fill="#000000" transform="translate(138 0)">20</text>
                    <text x="8" y="179" fill="#000000" transform="translate(148 0)">21</text>
                </g>
            </g>
            <g id="data">
                <g id="temp_max_data">
                    <path
                            d="M 11 105
                            L 20 90
                            L 30 100
                            L 40 90
                            L 50 60
                            L 60 60
                            L 70 55
                            L 80 50
                            L 90 50
                            L 100 40
                            L 110 50
                            L 120 60
                            L 130 70
                            L 140 70
                            L 150 80
                            L 160 90
                            L 169 85"
                            stroke="violet" stroke-width="1" fill="none"/>
                    <path
                            d="M 11 30
                            L 11 105
                            L 20 90
                            L 30 100
                            L 40 90
                            L 50 60
                            L 60 60
                            L 70 55
                            L 80 50
                            L 90 50
                            L 100 40
                            L 110 50
                            L 120 60
                            L 130 70
                            L 140 70
                            L 150 80
                            L 160 90
                            L 169 85
                            L 169 30 Z"
                            fill="lavenderblush"/>
                </g>
                <g id="temp_min_data">
                    <path
                            d="M 11 145
                            L 20 140
                            L 30 140
                            L 40 120
                            L 50 100
                            L 60 80
                            L 70 75
                            L 80 70
                            L 90 80
                            L 100 70
                            L 110 70
                            L 120 80
                            L 130 90
                            L 140 100
                            L 150 130
                            L 160 140
                            L 169 145"
                            stroke="violet" stroke-width="1" fill="none"/>
                    <path
                            d="M 11 170
                            L 11 145
                            L 20 140
                            L 30 140
                            L 40 120
                            L 50 100
                            L 60 80
                            L 70 75
                            L 80 70
                            L 90 80
                            L 100 70
                            L 110 70
                            L 120 80
                            L 130 90
                            L 140 100
                            L 150 130
                            L 160 140
                            L 169 145
                            L 169 170 Z"
                            fill="lavenderblush"/>
                </g>
                <g id="temp_data">
                    <path
                            d="M 11 125
                            L 20 115
                            L 30 120
                            L 40 105
                            L 50 80
                            L 60 70
                            L 70 65
                            L 80 60
                            L 90 65
                            L 100 55
                            L 110 60
                            L 120 70
                            L 130 80
                            L 140 85
                            L 150 105
                            L 160 115
                            L 169 115"
                            stroke="darkviolet" stroke-width="1" fill="none"/>
                </g>
                <g id="prec_data">
                    <path
                            d="M 11 170
                            L 11 170
                            L 20 170
                            L 30 168
                            L 40 165
                            L 50 170
                            L 60 170
                            L 70 165
                            L 80 165
                            L 90 150
                            L 100 155
                            L 110 170
                            L 120 170
                            L 130 170
                            L 140 170
                            L 150 170
                            L 160 160
                            L 169 160
                            L 169 170"
                            stroke="darkblue" stroke-width="1" fill="blue"/>
                </g>
            </g>
        </g>
        </g>
     </svg>
</svg>